<?xml version="1.0" encoding="utf-8"?>
<!-- Uploaded to: SVG Repo, www.svgrepo.com, Generator: SVG Repo Mixer Tools -->
<svg width="800px" height="800px" viewBox="0 0 1024 1024" class="icon"  version="1.1" xmlns="http://www.w3.org/2000/svg"><path d="M940.11605 183.775646c-31.937646-68.636234-104.990657-99.299651-206.02752-103.945872-77.469789 6.969331-127.869402 51.911478-151.334046 134.256931l-8.595918 158.758166c-16.958296 39.607597-35.887343 56.676518-55.865272 63.293489l-47.384077-55.738259s32.171186-119.044041 40.418843-190.351647c8.247656-71.430522-31.241122-111.378186-47.154633-119.277581-15.794692-8.128838-111.029925-16.376494-174.671676-0.815342-63.52703 15.679971-142.967571 23.231103-175.3682 181.878645-32.404726 158.762263 38.788158 214.619341 102.319285 214.848783s156.672692 21.485698 206.26106 48.428862c15.331709 127.066351-115.790867 105.347113-242.496665 78.40395-44.364442-0.815342-92.912122 68.517415-91.752615 110.792287l-0.581802 127.062254c20.670356 66.317221 68.058529 113.463659 150.399885 135.535256 31.241122 2.08957 67.357909 0.344164 111.144646-7.432314 66.431942-33.105347 121.481873-87.106395 167.35818-158.069836l24.505332-174.556955c49.473646 65.268338 71.188787 126.357536 62.830506 182.804611l-48.080599 94.997595c-4.412681 45.413325 11.611455 85.016825 47.150536 119.3964 143.897634-1.85603 252.137368-39.6035 318.221048-173.393351 19.863208-46.343388 22.882842-98.373685 0.700621-158.766359-48.895942-70.844623-133.212146-111.951794-237.621001-135.99824-42.160151-11.377914-62.945228-32.744793-63.182866-63.76057l47.855254-63.297587 214.160455 56.43888c31.589384-1.966654 58.303105-12.885683 71.659965-47.379979 25.664838-79.202903 22.759926-163.523205-14.868726-254.112217z" fill="#2EA86B" /><path d="M566.599239 993.221861l-4.638026-4.424972c-39.550237-37.751567-57.21325-82.095524-52.497378-131.810905l0.274513-2.900815 47.879837-95.636758c5.240314-41.516891-7.637174-87.176047-38.345661-136.145739l-18.86759 138.436072-1.860127 2.900815c-48.572263 75.753064-106.748355 131.024243-172.909882 164.281186l-1.999431 1.003813-2.200195 0.405622c-41.926611 7.674049-79.219292 10.341324-114.881289 8.24356l-1.561032-0.094236-1.515963-0.401525c-83.918776-22.251874-138.337739-71.192884-161.753216-145.462763l-0.721106-2.29443v-129.123144c-0.757981-28.766416 17.236905-67.923322 43.831807-95.337663 14.004217-14.434423 36.19873-31.646745 62.400301-31.646745l2.388665 0.032778 1.450408 0.299095c45.839433 9.530079 98.226186 19.695223 139.792243 19.69932h0.008194c35.494012 0 58.995531-7.084053 71.864825-21.661877 10.107783-11.455761 14.348382-28.975373 12.631656-52.153213-47.851157-23.140965-132.990897-42.041332-191.703721-42.041332-36.497825 0-69.160675-15.323514-91.977962-43.143478-23.657212-28.844263-47.470117-85.205296-26.574416-189.917343C96.753244 46.494985 175.288304 27.811769 238.393323 12.795544 242.756837 11.758954 247.067088 10.734655 251.307686 9.669383c31.91716-7.99363 68.242903-9.669383 93.092399-9.669383 34.105063 0 77.568122 3.40477 92.395875 10.873959 17.441765 8.657376 65.378963 52.087658 56.107008 134.724012-6.834124 61.941415-30.741264 156.750539-38.05476 184.890084l34.80978 40.566341c10.324935-6.104823 23.042632-18.781548 35.813594-48.092891l7.952658-157.828102 0.471177-1.683948c24.943732-88.982911 80.214911-138.198434 164.289381-146.278105l1.077563-0.10243 1.081659 0.045069c113.139981 4.810109 187.143542 42.557579 219.957988 112.189432l0.270415 0.606385c38.071149 90.593109 43.545003 179.723519 16.269967 264.92062l-0.278609 0.790759c-13.602692 35.752136-41.385781 54.607433-84.930784 57.635262l-2.540262 0.176179-206.625711-53.640495-38.017885 50.600376c1.597907 14.413937 10.472434 32.56042 51.362454 43.561392 118.863764 26.857122 199.738324 73.04072 247.257607 141.181192l1.134924 1.626587 0.692426 1.860128c22.587844 60.724548 22.501803 116.421835-0.254026 170.279481l-0.356456 0.778467c-61.470237 125.673305-160.54864 180.530667-331.278814 183.427385l-6.408015 0.114722z m-26.291709-130.450636c-2.765608 37.173863 9.915215 69.640047 38.693922 98.988265 155.132147-3.896434 241.484658-52.120435 297.046738-165.399721 19.113421-45.503463 19.207657-92.953094 0.266318-144.979294-43.077923-60.638506-117.585439-102.204564-227.6853-127.037671l-0.598191-0.147499c-61.355516-16.39698-74.708279-51.669744-75.109804-78.37527l-0.081944-5.342744 57.225542-76.158686 221.867281 57.602484c29.680091-2.585331 46.314708-13.758385 55.295763-37.022267 25.119911-78.776795 20.10904-158.131294-15.315321-242.582706-27.828158-58.716921-90.584915-89.454089-191.810248-93.961004-69.79574 7.063567-114.19296 46.941579-135.674561 121.862912l-8.059185 159.860311-1.073466 2.536164c-16.6592 39.447807-37.882678 63.076338-64.879105 72.23767l-9.988964 3.392478-59.962469-69.885878 2.126445-7.948561c0.315484-1.179993 31.60987-118.736751 39.283918-188.266174 7.338079-65.387157-29.524397-98.623614-39.038087-103.347681-5.793436-2.736927-36.891156-7.575716-78.436727-7.575717-23.091799 0-56.676518 1.515963-85.504391 8.735223-4.359417 1.093951-8.792583 2.146931-13.274917 3.212202-60.068996 14.291021-122.182493 29.069608-149.887735 167.284431-18.507036 92.723651 0.717009 140.361754 20.100845 163.994382 22.632913 27.598715 52.218768 31.720494 67.841378 31.720495 67.226798 0 163.125777 22.19861 213.783513 49.485938l7.08815 3.818587 0.999716 7.985436c4.572471 36.501923-1.954363 65.030701-19.392031 84.787381-19.138004 21.682363-50.30128 32.22445-95.272107 32.22445h-0.008195c-44.020278-0.004097-97.550149-10.267574-144.520408-20.014804-11.595066 0.397428-25.77956 8.419739-39.099545 22.145346-20.584315 21.215283-35.641511 52.558835-35.026932 72.905513l0.008195 0.471177v124.497409c20.477788 62.555994 65.567434 102.495465 137.743645 122.018606 32.117922 1.749503 65.727224-0.680135 103.626291-7.473286 59.446222-30.3971 112.181237-80.62463 156.803803-149.351003l28.418154-208.485838 22.800897 29.889048c52.771889 69.172967 75.171262 134.53554 66.571247 194.264469l-0.360553 2.49929-47.531575 94.936137z" fill="#332C2B" /><path d="M499.806744 542.608106c-32.367851 0-58.700533-26.328584-58.700533-58.696436 0-32.363754 26.332681-58.696435 58.700533-58.696435s58.696435 26.332681 58.696435 58.696435c-0.004097 32.367851-26.328584 58.696435-58.696435 58.696436z m0-86.172235a27.508577 27.508577 0 0 0-27.479897 27.475799 27.508577 27.508577 0 0 0 27.479897 27.479896 27.508577 27.508577 0 0 0 27.479896-27.479896 27.512674 27.512674 0 0 0-27.479896-27.475799z" fill="#332C2B" /></svg>